<svg width="370" height="313" viewBox="0 0 370 313" fill="none" xmlns="http://www.w3.org/2000/svg">
<path d="M150.696 19V18.58L152.536 18.28V3.72L150.696 3.44V3H156.576V3.44L154.736 3.72V16.68L162.536 4.28V3.72L160.676 3.44V3H166.596V3.44L164.736 3.72V18.28L166.596 18.58V19H160.676V18.58L162.536 18.28V5.22L154.736 17.62V18.28L156.576 18.58V19H150.696ZM178.321 19.2C176.881 19.2 175.647 18.7067 174.621 17.72C173.674 16.7333 173.181 15.4933 173.141 14H171.241V18.4L172.441 18.6V19H167.841V18.6L169.241 18.4V9.24L167.841 9.04V8.64H172.441V9.04L171.241 9.24V13.5H173.141C173.194 12.5 173.454 11.62 173.921 10.86C174.387 10.1 175.001 9.51333 175.761 9.1C176.534 8.67333 177.387 8.46 178.321 8.46C179.281 8.46 180.154 8.68667 180.941 9.14C181.741 9.59333 182.367 10.2333 182.821 11.06C183.274 11.8733 183.501 12.7933 183.501 13.82C183.501 14.8467 183.274 15.7733 182.821 16.6C182.367 17.4133 181.747 18.0533 180.961 18.52C180.174 18.9733 179.294 19.2 178.321 19.2ZM178.321 18.76C179.294 18.76 180.034 18.4067 180.541 17.7C181.047 16.9933 181.301 16.0333 181.301 14.82V12.82C181.301 11.5933 181.047 10.6333 180.541 9.94C180.034 9.24667 179.294 8.9 178.321 8.9C177.347 8.9 176.607 9.24667 176.101 9.94C175.594 10.6333 175.341 11.5933 175.341 12.82V14.82C175.341 16.0333 175.594 16.9933 176.101 17.7C176.607 18.4067 177.347 18.76 178.321 18.76ZM184.892 19V18.6L186.292 18.4V9.24L184.892 9.04V8.64H189.492V9.04L188.292 9.24V13.5H193.232V9.24L192.032 9.04V8.64H196.632V9.04L195.232 9.24V18.4L196.632 18.6V19H192.032V18.6L193.232 18.4V14H188.292V18.4L189.492 18.6V19H184.892ZM197.704 18.6L199.104 18.4V9.24L197.704 9.04V8.64H202.504V9.04L201.104 9.24V13H203.824C205.024 13 205.964 13.2533 206.644 13.76C207.337 14.2667 207.684 15.0133 207.684 16C207.684 16.9867 207.344 17.7333 206.664 18.24C205.984 18.7467 205.037 19 203.824 19H197.704V18.6ZM203.224 18.5C203.957 18.5 204.524 18.2867 204.924 17.86C205.324 17.4333 205.524 16.82 205.524 16.02V15.98C205.524 15.18 205.324 14.5667 204.924 14.14C204.524 13.7133 203.957 13.5 203.224 13.5H201.104V18.5H203.224Z" fill="black"/>
<path d="M289.122 103V102.68L290.242 102.52V90.68L289.122 90.52V90.2H291.842V102.52L292.962 102.68V103H289.122Z" fill="#252525"/>
<path d="M339.702 101.768L343.078 98.328C343.963 97.4107 344.635 96.52 345.094 95.656C345.563 94.7813 345.798 93.88 345.798 92.952C345.798 92.0133 345.595 91.3307 345.19 90.904C344.795 90.4667 344.256 90.248 343.574 90.248C343.04 90.248 342.576 90.392 342.182 90.68C341.787 90.968 341.59 91.3467 341.59 91.816C341.59 92.3813 341.872 92.8027 342.438 93.08C342.438 93.464 342.32 93.7573 342.086 93.96C341.851 94.1627 341.574 94.264 341.254 94.264C340.912 94.264 340.619 94.1413 340.374 93.896C340.128 93.64 340.006 93.2933 340.006 92.856C340.006 92.28 340.182 91.768 340.534 91.32C340.886 90.8613 341.355 90.5093 341.942 90.264C342.528 90.008 343.158 89.88 343.83 89.88C345.131 89.88 346.096 90.1893 346.726 90.808C347.355 91.416 347.67 92.2213 347.67 93.224C347.67 93.832 347.542 94.392 347.286 94.904C347.04 95.4053 346.742 95.8427 346.39 96.216C346.048 96.5893 345.579 97.0373 344.982 97.56L344.534 97.944L340.71 101.32H346.678L347.334 98.952H347.75V103H339.702V101.768Z" fill="#252525"/>
<path d="M25.3111 153.32C24.6497 153.32 24.0417 153.192 23.4871 152.936C22.9431 152.68 22.5111 152.333 22.1911 151.896C21.8711 151.459 21.7111 150.968 21.7111 150.424C21.7111 149.987 21.8337 149.645 22.0791 149.4C22.3244 149.144 22.6177 149.016 22.9591 149.016C23.2791 149.016 23.5564 149.117 23.7911 149.32C24.0257 149.523 24.1431 149.816 24.1431 150.2C23.5777 150.477 23.2951 150.904 23.2951 151.48C23.2951 151.917 23.4764 152.275 23.8391 152.552C24.2124 152.819 24.7031 152.952 25.3111 152.952C26.0791 152.952 26.7031 152.664 27.1831 152.088C27.6631 151.512 27.9031 150.707 27.9031 149.672C27.9031 148.552 27.5831 147.688 26.9431 147.08C26.3031 146.461 25.3591 146.115 24.1111 146.04V145.688C25.2311 145.624 26.1004 145.325 26.7191 144.792C27.3484 144.248 27.6631 143.517 27.6631 142.6C27.6631 141.885 27.4657 141.315 27.0711 140.888C26.6871 140.461 26.1697 140.248 25.5191 140.248C24.9324 140.248 24.4684 140.349 24.1271 140.552C23.7964 140.744 23.6311 141.016 23.6311 141.368C23.6311 141.933 23.8977 142.339 24.4311 142.584C24.4311 142.947 24.3191 143.229 24.0951 143.432C23.8817 143.624 23.6204 143.72 23.3111 143.72C22.9911 143.72 22.7137 143.597 22.4791 143.352C22.2444 143.107 22.1271 142.781 22.1271 142.376C22.1271 141.896 22.2924 141.469 22.6231 141.096C22.9537 140.712 23.3911 140.413 23.9351 140.2C24.4897 139.987 25.0764 139.88 25.6951 139.88C26.9111 139.88 27.8604 140.125 28.5431 140.616C29.2257 141.107 29.5671 141.795 29.5671 142.68C29.5671 143.608 29.2311 144.328 28.5591 144.84C27.8977 145.341 26.9324 145.677 25.6631 145.848V145.896C26.9964 145.96 28.0684 146.317 28.8791 146.968C29.7004 147.608 30.1111 148.509 30.1111 149.672C30.1111 150.323 29.9297 150.925 29.5671 151.48C29.2151 152.035 28.6764 152.483 27.9511 152.824C27.2364 153.155 26.3564 153.32 25.3111 153.32Z" fill="#252525"/>
<path d="M78.2403 153V152.664L79.7123 152.424V149.928H74.3203V149.592L81.1043 140.2H81.4723V149.176H82.9443V149.928H81.4723V152.424L82.9443 152.664V153H78.2403ZM75.1043 149.176H79.7123V142.792L75.1043 149.176Z" fill="#252525"/>
<path d="M131.164 153.32C130.503 153.32 129.895 153.192 129.34 152.936C128.796 152.68 128.364 152.333 128.044 151.896C127.724 151.459 127.564 150.968 127.564 150.424C127.564 149.987 127.687 149.645 127.932 149.4C128.178 149.144 128.471 149.016 128.812 149.016C129.132 149.016 129.41 149.117 129.644 149.32C129.879 149.523 129.996 149.816 129.996 150.2C129.431 150.477 129.148 150.904 129.148 151.48C129.148 151.917 129.33 152.275 129.692 152.552C130.066 152.819 130.556 152.952 131.164 152.952C131.964 152.952 132.594 152.611 133.052 151.928C133.522 151.245 133.756 150.36 133.756 149.272C133.756 148.013 133.479 147.069 132.924 146.44C132.38 145.8 131.655 145.48 130.748 145.48C130.268 145.48 129.746 145.571 129.18 145.752L128.892 145.544L129.596 140.2H133.836C134.476 140.2 134.94 140.152 135.228 140.056C135.527 139.949 135.73 139.709 135.836 139.336L136.204 139.352C136.119 140.387 135.858 141.101 135.42 141.496C134.994 141.88 134.386 142.072 133.596 142.072H129.772L129.356 145.256C129.89 145.107 130.45 145.032 131.036 145.032C131.986 145.032 132.834 145.219 133.58 145.592C134.338 145.965 134.924 146.477 135.34 147.128C135.756 147.779 135.964 148.499 135.964 149.288C135.964 149.96 135.794 150.605 135.452 151.224C135.111 151.832 134.578 152.333 133.852 152.728C133.138 153.123 132.242 153.32 131.164 153.32Z" fill="#252525"/>
<path d="M185.069 153.32C183.501 153.32 182.391 152.717 181.741 151.512C181.09 150.307 180.765 148.616 180.765 146.44C180.765 144.285 181.181 142.653 182.013 141.544C182.855 140.435 184.013 139.88 185.485 139.88C186.146 139.88 186.738 139.976 187.261 140.168C187.794 140.349 188.21 140.605 188.509 140.936C188.818 141.267 188.973 141.635 188.973 142.04C188.973 142.403 188.855 142.712 188.621 142.968C188.397 143.213 188.114 143.336 187.773 143.336C187.485 143.336 187.245 143.256 187.053 143.096C186.861 142.936 186.765 142.717 186.765 142.44C186.925 142.312 187.037 142.184 187.101 142.056C187.175 141.928 187.213 141.773 187.213 141.592C187.213 141.197 187.053 140.867 186.733 140.6C186.413 140.333 185.997 140.2 185.485 140.2C184.663 140.2 184.002 140.531 183.501 141.192C183.01 141.853 182.759 142.936 182.749 144.44L182.733 146.232C183.053 145.848 183.442 145.555 183.901 145.352C184.359 145.139 184.839 145.032 185.341 145.032C186.13 145.032 186.829 145.192 187.437 145.512C188.045 145.832 188.519 146.296 188.861 146.904C189.202 147.512 189.373 148.243 189.373 149.096C189.373 149.971 189.175 150.728 188.781 151.368C188.397 151.997 187.874 152.483 187.213 152.824C186.562 153.155 185.847 153.32 185.069 153.32ZM185.069 152.968C185.837 152.968 186.423 152.696 186.829 152.152C187.245 151.608 187.453 150.856 187.453 149.896V148.328C187.453 147.4 187.266 146.685 186.893 146.184C186.53 145.672 185.975 145.416 185.229 145.416C184.706 145.416 184.221 145.56 183.773 145.848C183.325 146.125 182.978 146.509 182.733 147L182.717 149.224C182.706 150.429 182.893 151.357 183.277 152.008C183.671 152.648 184.269 152.968 185.069 152.968Z" fill="#252525"/>
<path d="M236.256 153C236.331 152.211 236.48 151.464 236.704 150.76C236.939 150.056 237.2 149.416 237.488 148.84C237.787 148.264 238.176 147.549 238.656 146.696C239.221 145.704 239.675 144.861 240.016 144.168C240.357 143.464 240.645 142.696 240.88 141.864H235.52L235.088 143.768H234.672V140.2H241.696C241.568 141.299 241.371 142.333 241.104 143.304C240.837 144.264 240.475 145.427 240.016 146.792C239.557 148.104 239.2 149.219 238.944 150.136C238.699 151.043 238.533 151.997 238.448 153H236.256Z" fill="#252525"/>
<path d="M291.045 153.32C289.669 153.32 288.597 153.032 287.829 152.456C287.061 151.88 286.677 151.059 286.677 149.992C286.677 149.032 286.949 148.259 287.493 147.672C288.037 147.085 288.757 146.563 289.653 146.104L288.917 145.624C288.362 145.24 287.93 144.824 287.621 144.376C287.322 143.917 287.173 143.437 287.173 142.936C287.173 142.317 287.349 141.779 287.701 141.32C288.063 140.861 288.543 140.509 289.141 140.264C289.738 140.008 290.383 139.88 291.077 139.88C291.674 139.88 292.245 139.981 292.789 140.184C293.343 140.387 293.791 140.691 294.133 141.096C294.485 141.501 294.661 141.992 294.661 142.568C294.661 143.08 294.554 143.528 294.341 143.912C294.127 144.285 293.861 144.605 293.541 144.872C293.221 145.128 292.821 145.395 292.341 145.672L292.757 145.928C293.578 146.451 294.218 146.989 294.677 147.544C295.146 148.088 295.381 148.765 295.381 149.576C295.381 150.376 295.173 151.059 294.757 151.624C294.341 152.189 293.802 152.616 293.141 152.904C292.479 153.181 291.781 153.32 291.045 153.32ZM291.893 145.4C292.405 145.027 292.751 144.605 292.933 144.136C293.114 143.656 293.205 143.149 293.205 142.616C293.205 141.912 292.991 141.341 292.565 140.904C292.138 140.467 291.578 140.248 290.885 140.248C290.49 140.248 290.117 140.328 289.765 140.488C289.413 140.637 289.13 140.851 288.917 141.128C288.703 141.405 288.597 141.72 288.597 142.072C288.597 142.52 288.73 142.92 288.997 143.272C289.263 143.624 289.663 143.976 290.197 144.328L291.893 145.4ZM290.965 152.952C291.541 152.952 292.047 152.84 292.485 152.616C292.933 152.392 293.274 152.093 293.509 151.72C293.743 151.347 293.861 150.947 293.861 150.52C293.861 149.965 293.695 149.448 293.365 148.968C293.045 148.488 292.543 148.008 291.861 147.528L290.117 146.408C289.519 146.845 289.066 147.389 288.757 148.04C288.458 148.691 288.309 149.373 288.309 150.088C288.309 150.909 288.522 151.592 288.949 152.136C289.386 152.68 290.058 152.952 290.965 152.952Z" fill="#252525"/>
<path d="M343.509 153.32C342.847 153.32 342.25 153.224 341.717 153.032C341.194 152.851 340.778 152.595 340.469 152.264C340.17 151.933 340.021 151.565 340.021 151.16C340.021 150.797 340.133 150.493 340.357 150.248C340.591 149.992 340.879 149.864 341.221 149.864C341.509 149.864 341.749 149.944 341.941 150.104C342.133 150.264 342.229 150.483 342.229 150.76C342.069 150.888 341.951 151.016 341.877 151.144C341.813 151.272 341.781 151.427 341.781 151.608C341.781 152.003 341.941 152.333 342.261 152.6C342.581 152.867 342.997 153 343.509 153C344.33 153 344.986 152.669 345.477 152.008C345.978 151.347 346.234 150.264 346.245 148.76V146.968C345.935 147.352 345.551 147.651 345.093 147.864C344.645 148.067 344.165 148.168 343.653 148.168C342.863 148.168 342.165 148.008 341.557 147.688C340.949 147.368 340.474 146.904 340.133 146.296C339.791 145.688 339.621 144.957 339.621 144.104C339.621 143.229 339.813 142.477 340.197 141.848C340.591 141.208 341.114 140.723 341.765 140.392C342.426 140.051 343.146 139.88 343.925 139.88C345.493 139.88 346.602 140.483 347.253 141.688C347.903 142.893 348.229 144.584 348.229 146.76C348.229 148.915 347.807 150.547 346.965 151.656C346.133 152.765 344.981 153.32 343.509 153.32ZM343.765 147.784C344.277 147.784 344.757 147.645 345.205 147.368C345.663 147.08 346.015 146.691 346.261 146.2L346.277 143.976C346.287 142.771 346.095 141.848 345.701 141.208C345.317 140.557 344.725 140.232 343.925 140.232C343.157 140.232 342.565 140.504 342.149 141.048C341.743 141.592 341.541 142.344 341.541 143.304V144.872C341.541 145.8 341.722 146.52 342.085 147.032C342.458 147.533 343.018 147.784 343.765 147.784Z" fill="#252525"/>
<path d="M18.5519 203V202.68L19.6719 202.52V190.68L18.5519 190.52V190.2H21.2719V202.52L22.3919 202.68V203H18.5519ZM28.7555 203.32C27.8275 203.32 27.0168 203.069 26.3235 202.568C25.6302 202.067 25.0915 201.315 24.7075 200.312C24.3235 199.299 24.1315 198.061 24.1315 196.6C24.1315 195.139 24.3235 193.907 24.7075 192.904C25.0915 191.891 25.6302 191.133 26.3235 190.632C27.0168 190.131 27.8275 189.88 28.7555 189.88C29.6835 189.88 30.4942 190.131 31.1875 190.632C31.8808 191.133 32.4195 191.891 32.8035 192.904C33.1875 193.907 33.3795 195.139 33.3795 196.6C33.3795 198.061 33.1875 199.299 32.8035 200.312C32.4195 201.315 31.8808 202.067 31.1875 202.568C30.4942 203.069 29.6835 203.32 28.7555 203.32ZM28.7555 202.952C29.5555 202.952 30.1848 202.563 30.6435 201.784C31.1022 201.005 31.3315 199.789 31.3315 198.136V195.048C31.3315 193.405 31.1022 192.195 30.6435 191.416C30.1848 190.637 29.5555 190.248 28.7555 190.248C27.9555 190.248 27.3262 190.637 26.8675 191.416C26.4088 192.195 26.1795 193.405 26.1795 195.048V198.136C26.1795 199.779 26.4088 200.995 26.8675 201.784C27.3262 202.563 27.9555 202.952 28.7555 202.952Z" fill="#252525"/>
<path d="M74.3644 203V202.68L75.4844 202.52V190.68L74.3644 190.52V190.2H77.0844V202.52L78.2044 202.68V203H74.3644ZM79.88 203V202.68L81 202.52V190.68L79.88 190.52V190.2H82.6V202.52L83.72 202.68V203H79.88Z" fill="#252525"/>
<path d="M125.216 203V202.68L126.336 202.52V190.68L125.216 190.52V190.2H127.936V202.52L129.056 202.68V203H125.216ZM130.46 201.768L133.836 198.328C134.721 197.411 135.393 196.52 135.852 195.656C136.321 194.781 136.556 193.88 136.556 192.952C136.556 192.013 136.353 191.331 135.948 190.904C135.553 190.467 135.014 190.248 134.332 190.248C133.798 190.248 133.334 190.392 132.94 190.68C132.545 190.968 132.348 191.347 132.348 191.816C132.348 192.381 132.63 192.803 133.196 193.08C133.196 193.464 133.078 193.757 132.844 193.96C132.609 194.163 132.332 194.264 132.012 194.264C131.67 194.264 131.377 194.141 131.132 193.896C130.886 193.64 130.764 193.293 130.764 192.856C130.764 192.28 130.94 191.768 131.292 191.32C131.644 190.861 132.113 190.509 132.7 190.264C133.286 190.008 133.916 189.88 134.588 189.88C135.889 189.88 136.854 190.189 137.484 190.808C138.113 191.416 138.428 192.221 138.428 193.224C138.428 193.832 138.3 194.392 138.044 194.904C137.798 195.405 137.5 195.843 137.148 196.216C136.806 196.589 136.337 197.037 135.74 197.56L135.292 197.944L131.468 201.32H137.436L138.092 198.952H138.508V203H130.46V201.768Z" fill="#252525"/>
<path d="M178.161 203V202.68L179.281 202.52V190.68L178.161 190.52V190.2H180.881V202.52L182.001 202.68V203H178.161ZM187.069 203.32C186.408 203.32 185.8 203.192 185.245 202.936C184.701 202.68 184.269 202.333 183.949 201.896C183.629 201.459 183.469 200.968 183.469 200.424C183.469 199.987 183.592 199.645 183.837 199.4C184.082 199.144 184.376 199.016 184.717 199.016C185.037 199.016 185.314 199.117 185.549 199.32C185.784 199.523 185.901 199.816 185.901 200.2C185.336 200.477 185.053 200.904 185.053 201.48C185.053 201.917 185.234 202.275 185.597 202.552C185.97 202.819 186.461 202.952 187.069 202.952C187.837 202.952 188.461 202.664 188.941 202.088C189.421 201.512 189.661 200.707 189.661 199.672C189.661 198.552 189.341 197.688 188.701 197.08C188.061 196.461 187.117 196.115 185.869 196.04V195.688C186.989 195.624 187.858 195.325 188.477 194.792C189.106 194.248 189.421 193.517 189.421 192.6C189.421 191.885 189.224 191.315 188.829 190.888C188.445 190.461 187.928 190.248 187.277 190.248C186.69 190.248 186.226 190.349 185.885 190.552C185.554 190.744 185.389 191.016 185.389 191.368C185.389 191.933 185.656 192.339 186.189 192.584C186.189 192.947 186.077 193.229 185.853 193.432C185.64 193.624 185.378 193.72 185.069 193.72C184.749 193.72 184.472 193.597 184.237 193.352C184.002 193.107 183.885 192.781 183.885 192.376C183.885 191.896 184.05 191.469 184.381 191.096C184.712 190.712 185.149 190.413 185.693 190.2C186.248 189.987 186.834 189.88 187.453 189.88C188.669 189.88 189.618 190.125 190.301 190.616C190.984 191.107 191.325 191.795 191.325 192.68C191.325 193.608 190.989 194.328 190.317 194.84C189.656 195.341 188.69 195.677 187.421 195.848V195.896C188.754 195.96 189.826 196.317 190.637 196.968C191.458 197.608 191.869 198.509 191.869 199.672C191.869 200.323 191.688 200.925 191.325 201.48C190.973 202.035 190.434 202.483 189.709 202.824C188.994 203.155 188.114 203.32 187.069 203.32Z" fill="#252525"/>
<path d="M231.443 203V202.68L232.562 202.52V190.68L231.443 190.52V190.2H234.163V202.52L235.283 202.68V203H231.443ZM239.998 203V202.664L241.47 202.424V199.928H236.078V199.592L242.862 190.2H243.23V199.176H244.702V199.928H243.23V202.424L244.702 202.664V203H239.998ZM236.862 199.176H241.47V192.792L236.862 199.176Z" fill="#252525"/>
<path d="M284.271 203V202.68L285.391 202.52V190.68L284.271 190.52V190.2H286.991V202.52L288.111 202.68V203H284.271ZM292.922 203.32C292.261 203.32 291.653 203.192 291.098 202.936C290.554 202.68 290.122 202.333 289.802 201.896C289.482 201.459 289.322 200.968 289.322 200.424C289.322 199.987 289.445 199.645 289.69 199.4C289.936 199.144 290.229 199.016 290.57 199.016C290.89 199.016 291.168 199.117 291.402 199.32C291.637 199.523 291.754 199.816 291.754 200.2C291.189 200.477 290.906 200.904 290.906 201.48C290.906 201.917 291.088 202.275 291.45 202.552C291.824 202.819 292.314 202.952 292.922 202.952C293.722 202.952 294.352 202.611 294.81 201.928C295.28 201.245 295.514 200.36 295.514 199.272C295.514 198.013 295.237 197.069 294.682 196.44C294.138 195.8 293.413 195.48 292.506 195.48C292.026 195.48 291.504 195.571 290.938 195.752L290.65 195.544L291.354 190.2H295.594C296.234 190.2 296.698 190.152 296.986 190.056C297.285 189.949 297.488 189.709 297.594 189.336L297.962 189.352C297.877 190.387 297.616 191.101 297.178 191.496C296.752 191.88 296.144 192.072 295.354 192.072H291.53L291.114 195.256C291.648 195.107 292.208 195.032 292.794 195.032C293.744 195.032 294.592 195.219 295.338 195.592C296.096 195.965 296.682 196.477 297.098 197.128C297.514 197.779 297.722 198.499 297.722 199.288C297.722 199.96 297.552 200.605 297.21 201.224C296.869 201.832 296.336 202.333 295.61 202.728C294.896 203.123 294 203.32 292.922 203.32Z" fill="#252525"/>
<path d="M336.927 203V202.68L338.047 202.52V190.68L336.927 190.52V190.2H339.647V202.52L340.767 202.68V203H336.927ZM346.827 203.32C345.259 203.32 344.149 202.717 343.499 201.512C342.848 200.307 342.523 198.616 342.523 196.44C342.523 194.285 342.939 192.653 343.771 191.544C344.613 190.435 345.771 189.88 347.243 189.88C347.904 189.88 348.496 189.976 349.019 190.168C349.552 190.349 349.968 190.605 350.267 190.936C350.576 191.267 350.731 191.635 350.731 192.04C350.731 192.403 350.613 192.712 350.378 192.968C350.155 193.213 349.872 193.336 349.531 193.336C349.243 193.336 349.003 193.256 348.811 193.096C348.619 192.936 348.523 192.717 348.523 192.44C348.683 192.312 348.795 192.184 348.859 192.056C348.933 191.928 348.971 191.773 348.971 191.592C348.971 191.197 348.811 190.867 348.491 190.6C348.171 190.333 347.755 190.2 347.243 190.2C346.421 190.2 345.76 190.531 345.259 191.192C344.768 191.853 344.517 192.936 344.507 194.44L344.491 196.232C344.811 195.848 345.2 195.555 345.659 195.352C346.117 195.139 346.597 195.032 347.099 195.032C347.888 195.032 348.587 195.192 349.195 195.512C349.803 195.832 350.277 196.296 350.619 196.904C350.96 197.512 351.131 198.243 351.131 199.096C351.131 199.971 350.933 200.728 350.539 201.368C350.155 201.997 349.632 202.483 348.971 202.824C348.32 203.155 347.605 203.32 346.827 203.32ZM346.827 202.968C347.595 202.968 348.181 202.696 348.587 202.152C349.003 201.608 349.211 200.856 349.211 199.896V198.328C349.211 197.4 349.024 196.685 348.651 196.184C348.288 195.672 347.733 195.416 346.987 195.416C346.464 195.416 345.979 195.56 345.531 195.848C345.083 196.125 344.736 196.509 344.491 197L344.475 199.224C344.464 200.429 344.651 201.357 345.035 202.008C345.429 202.648 346.027 202.968 346.827 202.968Z" fill="#252525"/>
<path d="M20.1222 253V252.68L21.2422 252.52V240.68L20.1222 240.52V240.2H22.8422V252.52L23.9622 252.68V253H20.1222ZM27.0138 253C27.0885 252.211 27.2378 251.464 27.4618 250.76C27.6965 250.056 27.9578 249.416 28.2458 248.84C28.5445 248.264 28.9338 247.549 29.4138 246.696C29.9791 245.704 30.4325 244.861 30.7738 244.168C31.1151 243.464 31.4031 242.696 31.6378 241.864H26.2778L25.8458 243.768H25.4298V240.2H32.4538C32.3258 241.299 32.1285 242.333 31.8618 243.304C31.5951 244.264 31.2325 245.427 30.7738 246.792C30.3151 248.104 29.9578 249.219 29.7018 250.136C29.4565 251.043 29.2911 251.997 29.2058 253H27.0138Z" fill="#252525"/>
<path d="M71.9347 253V252.68L73.0547 252.52V240.68L71.9347 240.52V240.2H74.6547V252.52L75.7747 252.68V253H71.9347ZM81.8023 253.32C80.4263 253.32 79.3543 253.032 78.5863 252.456C77.8183 251.88 77.4343 251.059 77.4343 249.992C77.4343 249.032 77.7063 248.259 78.2503 247.672C78.7943 247.085 79.5143 246.563 80.4103 246.104L79.6743 245.624C79.1196 245.24 78.6876 244.824 78.3783 244.376C78.0796 243.917 77.9303 243.437 77.9303 242.936C77.9303 242.317 78.1063 241.779 78.4583 241.32C78.821 240.861 79.301 240.509 79.8983 240.264C80.4956 240.008 81.141 239.88 81.8343 239.88C82.4316 239.88 83.0023 239.981 83.5463 240.184C84.101 240.387 84.549 240.691 84.8903 241.096C85.2423 241.501 85.4183 241.992 85.4183 242.568C85.4183 243.08 85.3116 243.528 85.0983 243.912C84.885 244.285 84.6183 244.605 84.2983 244.872C83.9783 245.128 83.5783 245.395 83.0983 245.672L83.5143 245.928C84.3356 246.451 84.9756 246.989 85.4343 247.544C85.9036 248.088 86.1383 248.765 86.1383 249.576C86.1383 250.376 85.9303 251.059 85.5143 251.624C85.0983 252.189 84.5596 252.616 83.8983 252.904C83.237 253.181 82.5383 253.32 81.8023 253.32ZM82.6503 245.4C83.1623 245.027 83.509 244.605 83.6903 244.136C83.8716 243.656 83.9623 243.149 83.9623 242.616C83.9623 241.912 83.749 241.341 83.3223 240.904C82.8956 240.467 82.3356 240.248 81.6423 240.248C81.2476 240.248 80.8743 240.328 80.5223 240.488C80.1703 240.637 79.8876 240.851 79.6743 241.128C79.461 241.405 79.3543 241.72 79.3543 242.072C79.3543 242.52 79.4876 242.92 79.7543 243.272C80.021 243.624 80.421 243.976 80.9543 244.328L82.6503 245.4ZM81.7223 252.952C82.2983 252.952 82.805 252.84 83.2423 252.616C83.6903 252.392 84.0316 252.093 84.2663 251.72C84.501 251.347 84.6183 250.947 84.6183 250.52C84.6183 249.965 84.453 249.448 84.1223 248.968C83.8023 248.488 83.301 248.008 82.6183 247.528L80.8743 246.408C80.277 246.845 79.8236 247.389 79.5143 248.04C79.2156 248.691 79.0663 249.373 79.0663 250.088C79.0663 250.909 79.2796 251.592 79.7063 252.136C80.1436 252.68 80.8156 252.952 81.7223 252.952Z" fill="#252525"/>
<path d="M124.927 253V252.68L126.047 252.52V240.68L124.927 240.52V240.2H127.647V252.52L128.767 252.68V253H124.927ZM134.266 253.32C133.605 253.32 133.008 253.224 132.475 253.032C131.952 252.851 131.536 252.595 131.227 252.264C130.928 251.933 130.779 251.565 130.779 251.16C130.779 250.797 130.891 250.493 131.115 250.248C131.349 249.992 131.637 249.864 131.979 249.864C132.267 249.864 132.507 249.944 132.699 250.104C132.891 250.264 132.987 250.483 132.987 250.76C132.827 250.888 132.709 251.016 132.635 251.144C132.571 251.272 132.539 251.427 132.539 251.608C132.539 252.003 132.699 252.333 133.019 252.6C133.339 252.867 133.755 253 134.266 253C135.088 253 135.744 252.669 136.235 252.008C136.736 251.347 136.992 250.264 137.003 248.76V246.968C136.693 247.352 136.309 247.651 135.851 247.864C135.403 248.067 134.923 248.168 134.411 248.168C133.621 248.168 132.923 248.008 132.315 247.688C131.707 247.368 131.232 246.904 130.891 246.296C130.549 245.688 130.379 244.957 130.379 244.104C130.379 243.229 130.571 242.477 130.955 241.848C131.349 241.208 131.872 240.723 132.523 240.392C133.184 240.051 133.904 239.88 134.683 239.88C136.251 239.88 137.36 240.483 138.01 241.688C138.661 242.893 138.987 244.584 138.987 246.76C138.987 248.915 138.565 250.547 137.723 251.656C136.891 252.765 135.739 253.32 134.266 253.32ZM134.523 247.784C135.035 247.784 135.515 247.645 135.963 247.368C136.421 247.08 136.773 246.691 137.019 246.2L137.035 243.976C137.045 242.771 136.853 241.848 136.459 241.208C136.075 240.557 135.483 240.232 134.683 240.232C133.915 240.232 133.323 240.504 132.907 241.048C132.501 241.592 132.299 242.344 132.299 243.304V244.872C132.299 245.8 132.48 246.52 132.843 247.032C133.216 247.533 133.776 247.784 134.523 247.784Z" fill="#252525"/>
<path d="M175.131 251.768L178.507 248.328C179.393 247.411 180.065 246.52 180.523 245.656C180.993 244.781 181.227 243.88 181.227 242.952C181.227 242.013 181.025 241.331 180.619 240.904C180.225 240.467 179.686 240.248 179.003 240.248C178.47 240.248 178.006 240.392 177.611 240.68C177.217 240.968 177.019 241.347 177.019 241.816C177.019 242.381 177.302 242.803 177.867 243.08C177.867 243.464 177.75 243.757 177.515 243.96C177.281 244.163 177.003 244.264 176.683 244.264C176.342 244.264 176.049 244.141 175.803 243.896C175.558 243.64 175.435 243.293 175.435 242.856C175.435 242.28 175.611 241.768 175.963 241.32C176.315 240.861 176.785 240.509 177.371 240.264C177.958 240.008 178.587 239.88 179.259 239.88C180.561 239.88 181.526 240.189 182.155 240.808C182.785 241.416 183.099 242.221 183.099 243.224C183.099 243.832 182.971 244.392 182.715 244.904C182.47 245.405 182.171 245.843 181.819 246.216C181.478 246.589 181.009 247.037 180.411 247.56L179.963 247.944L176.139 251.32H182.107L182.763 248.952H183.179V253H175.131V251.768ZM189.904 253.32C188.976 253.32 188.165 253.069 187.472 252.568C186.779 252.067 186.24 251.315 185.856 250.312C185.472 249.299 185.28 248.061 185.28 246.6C185.28 245.139 185.472 243.907 185.856 242.904C186.24 241.891 186.779 241.133 187.472 240.632C188.165 240.131 188.976 239.88 189.904 239.88C190.832 239.88 191.643 240.131 192.336 240.632C193.029 241.133 193.568 241.891 193.952 242.904C194.336 243.907 194.528 245.139 194.528 246.6C194.528 248.061 194.336 249.299 193.952 250.312C193.568 251.315 193.029 252.067 192.336 252.568C191.643 253.069 190.832 253.32 189.904 253.32ZM189.904 252.952C190.704 252.952 191.333 252.563 191.792 251.784C192.251 251.005 192.48 249.789 192.48 248.136V245.048C192.48 243.405 192.251 242.195 191.792 241.416C191.333 240.637 190.704 240.248 189.904 240.248C189.104 240.248 188.475 240.637 188.016 241.416C187.557 242.195 187.328 243.405 187.328 245.048V248.136C187.328 249.779 187.557 250.995 188.016 251.784C188.475 252.563 189.104 252.952 189.904 252.952Z" fill="#252525"/>
<circle cx="238" cy="248" r="14.5" stroke="black"/>
<path d="M230.944 251.768L234.32 248.328C235.205 247.411 235.877 246.52 236.336 245.656C236.805 244.781 237.04 243.88 237.04 242.952C237.04 242.013 236.837 241.331 236.432 240.904C236.037 240.467 235.499 240.248 234.816 240.248C234.283 240.248 233.819 240.392 233.424 240.68C233.029 240.968 232.832 241.347 232.832 241.816C232.832 242.381 233.115 242.803 233.68 243.08C233.68 243.464 233.563 243.757 233.328 243.96C233.093 244.163 232.816 244.264 232.496 244.264C232.155 244.264 231.861 244.141 231.616 243.896C231.371 243.64 231.248 243.293 231.248 242.856C231.248 242.28 231.424 241.768 231.776 241.32C232.128 240.861 232.597 240.509 233.184 240.264C233.771 240.008 234.4 239.88 235.072 239.88C236.373 239.88 237.339 240.189 237.968 240.808C238.597 241.416 238.912 242.221 238.912 243.224C238.912 243.832 238.784 244.392 238.528 244.904C238.283 245.405 237.984 245.843 237.632 246.216C237.291 246.589 236.821 247.037 236.224 247.56L235.776 247.944L231.952 251.32H237.92L238.576 248.952H238.992V253H230.944V251.768ZM241.028 253V252.68L242.148 252.52V240.68L241.028 240.52V240.2H243.748V252.52L244.868 252.68V253H241.028Z" fill="#252525"/>
<path d="M281.796 251.768L285.172 248.328C286.057 247.411 286.729 246.52 287.188 245.656C287.657 244.781 287.892 243.88 287.892 242.952C287.892 242.013 287.689 241.331 287.284 240.904C286.889 240.467 286.35 240.248 285.668 240.248C285.134 240.248 284.67 240.392 284.276 240.68C283.881 240.968 283.684 241.347 283.684 241.816C283.684 242.381 283.966 242.803 284.532 243.08C284.532 243.464 284.414 243.757 284.18 243.96C283.945 244.163 283.668 244.264 283.348 244.264C283.006 244.264 282.713 244.141 282.468 243.896C282.222 243.64 282.1 243.293 282.1 242.856C282.1 242.28 282.276 241.768 282.628 241.32C282.98 240.861 283.449 240.509 284.036 240.264C284.622 240.008 285.252 239.88 285.924 239.88C287.225 239.88 288.19 240.189 288.82 240.808C289.449 241.416 289.764 242.221 289.764 243.224C289.764 243.832 289.636 244.392 289.38 244.904C289.134 245.405 288.836 245.843 288.484 246.216C288.142 246.589 287.673 247.037 287.076 247.56L286.628 247.944L282.804 251.32H288.772L289.428 248.952H289.844V253H281.796V251.768ZM291.608 251.768L294.984 248.328C295.869 247.411 296.541 246.52 297 245.656C297.469 244.781 297.704 243.88 297.704 242.952C297.704 242.013 297.501 241.331 297.096 240.904C296.701 240.467 296.163 240.248 295.48 240.248C294.947 240.248 294.483 240.392 294.088 240.68C293.693 240.968 293.496 241.347 293.496 241.816C293.496 242.381 293.779 242.803 294.344 243.08C294.344 243.464 294.227 243.757 293.992 243.96C293.757 244.163 293.48 244.264 293.16 244.264C292.819 244.264 292.525 244.141 292.28 243.896C292.035 243.64 291.912 243.293 291.912 242.856C291.912 242.28 292.088 241.768 292.44 241.32C292.792 240.861 293.261 240.509 293.848 240.264C294.435 240.008 295.064 239.88 295.736 239.88C297.037 239.88 298.003 240.189 298.632 240.808C299.261 241.416 299.576 242.221 299.576 243.224C299.576 243.832 299.448 244.392 299.192 244.904C298.947 245.405 298.648 245.843 298.296 246.216C297.955 246.589 297.485 247.037 296.888 247.56L296.44 247.944L292.616 251.32H298.584L299.24 248.952H299.656V253H291.608V251.768Z" fill="#252525"/>
<path d="M334.741 251.768L338.117 248.328C339.002 247.411 339.674 246.52 340.133 245.656C340.602 244.781 340.837 243.88 340.837 242.952C340.837 242.013 340.634 241.331 340.229 240.904C339.834 240.467 339.295 240.248 338.613 240.248C338.079 240.248 337.615 240.392 337.221 240.68C336.826 240.968 336.629 241.347 336.629 241.816C336.629 242.381 336.911 242.803 337.477 243.08C337.477 243.464 337.359 243.757 337.125 243.96C336.89 244.163 336.613 244.264 336.293 244.264C335.951 244.264 335.658 244.141 335.413 243.896C335.167 243.64 335.045 243.293 335.045 242.856C335.045 242.28 335.221 241.768 335.573 241.32C335.925 240.861 336.394 240.509 336.981 240.264C337.567 240.008 338.197 239.88 338.869 239.88C340.17 239.88 341.135 240.189 341.765 240.808C342.394 241.416 342.709 242.221 342.709 243.224C342.709 243.832 342.581 244.392 342.325 244.904C342.079 245.405 341.781 245.843 341.429 246.216C341.087 246.589 340.618 247.037 340.021 247.56L339.573 247.944L335.749 251.32H341.717L342.373 248.952H342.789V253H334.741V251.768ZM348.217 253.32C347.556 253.32 346.948 253.192 346.393 252.936C345.849 252.68 345.417 252.333 345.097 251.896C344.777 251.459 344.617 250.968 344.617 250.424C344.617 249.987 344.74 249.645 344.985 249.4C345.231 249.144 345.524 249.016 345.865 249.016C346.185 249.016 346.463 249.117 346.697 249.32C346.932 249.523 347.049 249.816 347.049 250.2C346.484 250.477 346.201 250.904 346.201 251.48C346.201 251.917 346.383 252.275 346.745 252.552C347.119 252.819 347.609 252.952 348.217 252.952C348.985 252.952 349.609 252.664 350.089 252.088C350.569 251.512 350.809 250.707 350.809 249.672C350.809 248.552 350.489 247.688 349.849 247.08C349.209 246.461 348.265 246.115 347.017 246.04V245.688C348.137 245.624 349.007 245.325 349.625 244.792C350.255 244.248 350.569 243.517 350.569 242.6C350.569 241.885 350.372 241.315 349.977 240.888C349.593 240.461 349.076 240.248 348.425 240.248C347.839 240.248 347.375 240.349 347.033 240.552C346.703 240.744 346.537 241.016 346.537 241.368C346.537 241.933 346.804 242.339 347.337 242.584C347.337 242.947 347.225 243.229 347.001 243.432C346.788 243.624 346.527 243.72 346.217 243.72C345.897 243.72 345.62 243.597 345.385 243.352C345.151 243.107 345.033 242.781 345.033 242.376C345.033 241.896 345.199 241.469 345.529 241.096C345.86 240.712 346.297 240.413 346.841 240.2C347.396 239.987 347.983 239.88 348.601 239.88C349.817 239.88 350.767 240.125 351.449 240.616C352.132 241.107 352.473 241.795 352.473 242.68C352.473 243.608 352.137 244.328 351.465 244.84C350.804 245.341 349.839 245.677 348.569 245.848V245.896C349.903 245.96 350.975 246.317 351.785 246.968C352.607 247.608 353.017 248.509 353.017 249.672C353.017 250.323 352.836 250.925 352.473 251.48C352.121 252.035 351.583 252.483 350.857 252.824C350.143 253.155 349.263 253.32 348.217 253.32Z" fill="#252525"/>
<path d="M17.0221 301.768L20.3981 298.328C21.2834 297.411 21.9554 296.52 22.4141 295.656C22.8834 294.781 23.1181 293.88 23.1181 292.952C23.1181 292.013 22.9154 291.331 22.5101 290.904C22.1154 290.467 21.5767 290.248 20.8941 290.248C20.3607 290.248 19.8967 290.392 19.5021 290.68C19.1074 290.968 18.9101 291.347 18.9101 291.816C18.9101 292.381 19.1927 292.803 19.7581 293.08C19.7581 293.464 19.6407 293.757 19.4061 293.96C19.1714 294.163 18.8941 294.264 18.5741 294.264C18.2327 294.264 17.9394 294.141 17.6941 293.896C17.4487 293.64 17.3261 293.293 17.3261 292.856C17.3261 292.28 17.5021 291.768 17.8541 291.32C18.2061 290.861 18.6754 290.509 19.2621 290.264C19.8487 290.008 20.4781 289.88 21.1501 289.88C22.4514 289.88 23.4167 290.189 24.0461 290.808C24.6754 291.416 24.9901 292.221 24.9901 293.224C24.9901 293.832 24.8621 294.392 24.6061 294.904C24.3607 295.405 24.0621 295.843 23.7101 296.216C23.3687 296.589 22.8994 297.037 22.3021 297.56L21.8541 297.944L18.0301 301.32H23.9981L24.6541 298.952H25.0701V303H17.0221V301.768ZM30.1466 303V302.664L31.6186 302.424V299.928H26.2266V299.592L33.0106 290.2H33.3786V299.176H34.8506V299.928H33.3786V302.424L34.8506 302.664V303H30.1466ZM27.0106 299.176H31.6186V292.792L27.0106 299.176Z" fill="#252525"/>
<path d="M69.8502 301.768L73.2262 298.328C74.1115 297.411 74.7835 296.52 75.2422 295.656C75.7115 294.781 75.9462 293.88 75.9462 292.952C75.9462 292.013 75.7435 291.331 75.3382 290.904C74.9435 290.467 74.4049 290.248 73.7222 290.248C73.1889 290.248 72.7249 290.392 72.3302 290.68C71.9355 290.968 71.7382 291.347 71.7382 291.816C71.7382 292.381 72.0209 292.803 72.5862 293.08C72.5862 293.464 72.4689 293.757 72.2342 293.96C71.9995 294.163 71.7222 294.264 71.4022 294.264C71.0609 294.264 70.7675 294.141 70.5222 293.896C70.2769 293.64 70.1542 293.293 70.1542 292.856C70.1542 292.28 70.3302 291.768 70.6822 291.32C71.0342 290.861 71.5035 290.509 72.0902 290.264C72.6769 290.008 73.3062 289.88 73.9782 289.88C75.2795 289.88 76.2449 290.189 76.8742 290.808C77.5035 291.416 77.8182 292.221 77.8182 293.224C77.8182 293.832 77.6902 294.392 77.4342 294.904C77.1889 295.405 76.8902 295.843 76.5382 296.216C76.1969 296.589 75.7275 297.037 75.1302 297.56L74.6822 297.944L70.8582 301.32H76.8262L77.4822 298.952H77.8982V303H69.8502V301.768ZM83.0707 303.32C82.4094 303.32 81.8014 303.192 81.2467 302.936C80.7027 302.68 80.2707 302.333 79.9507 301.896C79.6307 301.459 79.4707 300.968 79.4707 300.424C79.4707 299.987 79.5934 299.645 79.8387 299.4C80.084 299.144 80.3774 299.016 80.7187 299.016C81.0387 299.016 81.316 299.117 81.5507 299.32C81.7854 299.523 81.9027 299.816 81.9027 300.2C81.3374 300.477 81.0547 300.904 81.0547 301.48C81.0547 301.917 81.236 302.275 81.5987 302.552C81.972 302.819 82.4627 302.952 83.0707 302.952C83.8707 302.952 84.5 302.611 84.9587 301.928C85.428 301.245 85.6627 300.36 85.6627 299.272C85.6627 298.013 85.3854 297.069 84.8307 296.44C84.2867 295.8 83.5614 295.48 82.6547 295.48C82.1747 295.48 81.652 295.571 81.0867 295.752L80.7987 295.544L81.5027 290.2H85.7427C86.3827 290.2 86.8467 290.152 87.1347 290.056C87.4334 289.949 87.636 289.709 87.7427 289.336L88.1107 289.352C88.0254 290.387 87.764 291.101 87.3267 291.496C86.9 291.88 86.292 292.072 85.5027 292.072H81.6787L81.2627 295.256C81.796 295.107 82.356 295.032 82.9427 295.032C83.892 295.032 84.74 295.219 85.4867 295.592C86.244 295.965 86.8307 296.477 87.2467 297.128C87.6627 297.779 87.8707 298.499 87.8707 299.288C87.8707 299.96 87.7 300.605 87.3587 301.224C87.0174 301.832 86.484 302.333 85.7587 302.728C85.044 303.123 84.148 303.32 83.0707 303.32Z" fill="#252525"/>
<path d="M122.506 301.768L125.882 298.328C126.768 297.411 127.44 296.52 127.898 295.656C128.368 294.781 128.602 293.88 128.602 292.952C128.602 292.013 128.4 291.331 127.994 290.904C127.6 290.467 127.061 290.248 126.378 290.248C125.845 290.248 125.381 290.392 124.986 290.68C124.592 290.968 124.394 291.347 124.394 291.816C124.394 292.381 124.677 292.803 125.242 293.08C125.242 293.464 125.125 293.757 124.89 293.96C124.656 294.163 124.378 294.264 124.058 294.264C123.717 294.264 123.424 294.141 123.178 293.896C122.933 293.64 122.81 293.293 122.81 292.856C122.81 292.28 122.986 291.768 123.338 291.32C123.69 290.861 124.16 290.509 124.746 290.264C125.333 290.008 125.962 289.88 126.634 289.88C127.936 289.88 128.901 290.189 129.53 290.808C130.16 291.416 130.474 292.221 130.474 293.224C130.474 293.832 130.346 294.392 130.09 294.904C129.845 295.405 129.546 295.843 129.194 296.216C128.853 296.589 128.384 297.037 127.786 297.56L127.338 297.944L123.514 301.32H129.482L130.138 298.952H130.554V303H122.506V301.768ZM136.975 303.32C135.407 303.32 134.298 302.717 133.647 301.512C132.996 300.307 132.671 298.616 132.671 296.44C132.671 294.285 133.087 292.653 133.919 291.544C134.762 290.435 135.919 289.88 137.391 289.88C138.052 289.88 138.644 289.976 139.167 290.168C139.7 290.349 140.116 290.605 140.415 290.936C140.724 291.267 140.879 291.635 140.879 292.04C140.879 292.403 140.762 292.712 140.527 292.968C140.303 293.213 140.02 293.336 139.679 293.336C139.391 293.336 139.151 293.256 138.959 293.096C138.767 292.936 138.671 292.717 138.671 292.44C138.831 292.312 138.943 292.184 139.007 292.056C139.082 291.928 139.119 291.773 139.119 291.592C139.119 291.197 138.959 290.867 138.639 290.6C138.319 290.333 137.903 290.2 137.391 290.2C136.57 290.2 135.908 290.531 135.407 291.192C134.916 291.853 134.666 292.936 134.655 294.44L134.639 296.232C134.959 295.848 135.348 295.555 135.807 295.352C136.266 295.139 136.746 295.032 137.247 295.032C138.036 295.032 138.735 295.192 139.343 295.512C139.951 295.832 140.426 296.296 140.767 296.904C141.108 297.512 141.279 298.243 141.279 299.096C141.279 299.971 141.082 300.728 140.687 301.368C140.303 301.997 139.78 302.483 139.119 302.824C138.468 303.155 137.754 303.32 136.975 303.32ZM136.975 302.968C137.743 302.968 138.33 302.696 138.735 302.152C139.151 301.608 139.359 300.856 139.359 299.896V298.328C139.359 297.4 139.172 296.685 138.799 296.184C138.436 295.672 137.882 295.416 137.135 295.416C136.612 295.416 136.127 295.56 135.679 295.848C135.231 296.125 134.884 296.509 134.639 297L134.623 299.224C134.612 300.429 134.799 301.357 135.183 302.008C135.578 302.648 136.175 302.968 136.975 302.968Z" fill="#252525"/>
<path d="M176.702 301.768L180.078 298.328C180.963 297.411 181.635 296.52 182.094 295.656C182.563 294.781 182.798 293.88 182.798 292.952C182.798 292.013 182.595 291.331 182.19 290.904C181.795 290.467 181.256 290.248 180.574 290.248C180.04 290.248 179.576 290.392 179.182 290.68C178.787 290.968 178.59 291.347 178.59 291.816C178.59 292.381 178.872 292.803 179.438 293.08C179.438 293.464 179.32 293.757 179.086 293.96C178.851 294.163 178.574 294.264 178.254 294.264C177.912 294.264 177.619 294.141 177.374 293.896C177.128 293.64 177.006 293.293 177.006 292.856C177.006 292.28 177.182 291.768 177.534 291.32C177.886 290.861 178.355 290.509 178.942 290.264C179.528 290.008 180.158 289.88 180.83 289.88C182.131 289.88 183.096 290.189 183.726 290.808C184.355 291.416 184.67 292.221 184.67 293.224C184.67 293.832 184.542 294.392 184.286 294.904C184.04 295.405 183.742 295.843 183.39 296.216C183.048 296.589 182.579 297.037 181.982 297.56L181.534 297.944L177.71 301.32H183.678L184.334 298.952H184.75V303H176.702V301.768ZM188.162 303C188.237 302.211 188.386 301.464 188.61 300.76C188.845 300.056 189.106 299.416 189.394 298.84C189.693 298.264 190.082 297.549 190.562 296.696C191.128 295.704 191.581 294.861 191.922 294.168C192.264 293.464 192.552 292.696 192.786 291.864H187.426L186.994 293.768H186.578V290.2H193.602C193.474 291.299 193.277 292.333 193.01 293.304C192.744 294.264 192.381 295.427 191.922 296.792C191.464 298.104 191.106 299.219 190.85 300.136C190.605 301.043 190.44 301.997 190.354 303H188.162Z" fill="#252525"/>
<path d="M228.514 301.768L231.89 298.328C232.776 297.411 233.448 296.52 233.906 295.656C234.376 294.781 234.61 293.88 234.61 292.952C234.61 292.013 234.408 291.331 234.002 290.904C233.608 290.467 233.069 290.248 232.386 290.248C231.853 290.248 231.389 290.392 230.994 290.68C230.6 290.968 230.402 291.347 230.402 291.816C230.402 292.381 230.685 292.803 231.25 293.08C231.25 293.464 231.133 293.757 230.898 293.96C230.664 294.163 230.386 294.264 230.066 294.264C229.725 294.264 229.432 294.141 229.186 293.896C228.941 293.64 228.818 293.293 228.818 292.856C228.818 292.28 228.994 291.768 229.346 291.32C229.698 290.861 230.168 290.509 230.754 290.264C231.341 290.008 231.97 289.88 232.642 289.88C233.944 289.88 234.909 290.189 235.538 290.808C236.168 291.416 236.482 292.221 236.482 293.224C236.482 293.832 236.354 294.392 236.098 294.904C235.853 295.405 235.554 295.843 235.202 296.216C234.861 296.589 234.392 297.037 233.794 297.56L233.346 297.944L229.522 301.32H235.49L236.146 298.952H236.562V303H228.514V301.768ZM242.951 303.32C241.575 303.32 240.503 303.032 239.735 302.456C238.967 301.88 238.583 301.059 238.583 299.992C238.583 299.032 238.855 298.259 239.399 297.672C239.943 297.085 240.663 296.563 241.559 296.104L240.823 295.624C240.268 295.24 239.836 294.824 239.527 294.376C239.228 293.917 239.079 293.437 239.079 292.936C239.079 292.317 239.255 291.779 239.607 291.32C239.969 290.861 240.449 290.509 241.047 290.264C241.644 290.008 242.289 289.88 242.983 289.88C243.58 289.88 244.151 289.981 244.695 290.184C245.249 290.387 245.697 290.691 246.039 291.096C246.391 291.501 246.567 291.992 246.567 292.568C246.567 293.08 246.46 293.528 246.247 293.912C246.033 294.285 245.767 294.605 245.447 294.872C245.127 295.128 244.727 295.395 244.247 295.672L244.663 295.928C245.484 296.451 246.124 296.989 246.583 297.544C247.052 298.088 247.287 298.765 247.287 299.576C247.287 300.376 247.079 301.059 246.663 301.624C246.247 302.189 245.708 302.616 245.047 302.904C244.385 303.181 243.687 303.32 242.951 303.32ZM243.799 295.4C244.311 295.027 244.657 294.605 244.839 294.136C245.02 293.656 245.111 293.149 245.111 292.616C245.111 291.912 244.897 291.341 244.471 290.904C244.044 290.467 243.484 290.248 242.791 290.248C242.396 290.248 242.023 290.328 241.671 290.488C241.319 290.637 241.036 290.851 240.823 291.128C240.609 291.405 240.503 291.72 240.503 292.072C240.503 292.52 240.636 292.92 240.903 293.272C241.169 293.624 241.569 293.976 242.103 294.328L243.799 295.4ZM242.871 302.952C243.447 302.952 243.953 302.84 244.391 302.616C244.839 302.392 245.18 302.093 245.415 301.72C245.649 301.347 245.767 300.947 245.767 300.52C245.767 299.965 245.601 299.448 245.271 298.968C244.951 298.488 244.449 298.008 243.767 297.528L242.023 296.408C241.425 296.845 240.972 297.389 240.663 298.04C240.364 298.691 240.215 299.373 240.215 300.088C240.215 300.909 240.428 301.592 240.855 302.136C241.292 302.68 241.964 302.952 242.871 302.952Z" fill="#252525"/>
<path d="M281.506 301.768L284.882 298.328C285.768 297.411 286.44 296.52 286.898 295.656C287.368 294.781 287.602 293.88 287.602 292.952C287.602 292.013 287.4 291.331 286.994 290.904C286.6 290.467 286.061 290.248 285.378 290.248C284.845 290.248 284.381 290.392 283.986 290.68C283.592 290.968 283.394 291.347 283.394 291.816C283.394 292.381 283.677 292.803 284.242 293.08C284.242 293.464 284.125 293.757 283.89 293.96C283.656 294.163 283.378 294.264 283.058 294.264C282.717 294.264 282.424 294.141 282.178 293.896C281.933 293.64 281.81 293.293 281.81 292.856C281.81 292.28 281.986 291.768 282.338 291.32C282.69 290.861 283.16 290.509 283.746 290.264C284.333 290.008 284.962 289.88 285.634 289.88C286.936 289.88 287.901 290.189 288.53 290.808C289.16 291.416 289.474 292.221 289.474 293.224C289.474 293.832 289.346 294.392 289.09 294.904C288.845 295.405 288.546 295.843 288.194 296.216C287.853 296.589 287.384 297.037 286.786 297.56L286.338 297.944L282.514 301.32H288.482L289.138 298.952H289.554V303H281.506V301.768ZM295.415 303.32C294.754 303.32 294.156 303.224 293.623 303.032C293.1 302.851 292.684 302.595 292.375 302.264C292.076 301.933 291.927 301.565 291.927 301.16C291.927 300.797 292.039 300.493 292.263 300.248C292.498 299.992 292.786 299.864 293.127 299.864C293.415 299.864 293.655 299.944 293.847 300.104C294.039 300.264 294.135 300.483 294.135 300.76C293.975 300.888 293.858 301.016 293.783 301.144C293.719 301.272 293.687 301.427 293.687 301.608C293.687 302.003 293.847 302.333 294.167 302.6C294.487 302.867 294.903 303 295.415 303C296.236 303 296.892 302.669 297.383 302.008C297.884 301.347 298.14 300.264 298.151 298.76V296.968C297.842 297.352 297.458 297.651 296.999 297.864C296.551 298.067 296.071 298.168 295.559 298.168C294.77 298.168 294.071 298.008 293.463 297.688C292.855 297.368 292.38 296.904 292.039 296.296C291.698 295.688 291.527 294.957 291.527 294.104C291.527 293.229 291.719 292.477 292.103 291.848C292.498 291.208 293.02 290.723 293.671 290.392C294.332 290.051 295.052 289.88 295.831 289.88C297.399 289.88 298.508 290.483 299.159 291.688C299.81 292.893 300.135 294.584 300.135 296.76C300.135 298.915 299.714 300.547 298.871 301.656C298.039 302.765 296.887 303.32 295.415 303.32ZM295.671 297.784C296.183 297.784 296.663 297.645 297.111 297.368C297.57 297.08 297.922 296.691 298.167 296.2L298.183 293.976C298.194 292.771 298.002 291.848 297.607 291.208C297.223 290.557 296.631 290.232 295.831 290.232C295.063 290.232 294.471 290.504 294.055 291.048C293.65 291.592 293.447 292.344 293.447 293.304V294.872C293.447 295.8 293.628 296.52 293.991 297.032C294.364 297.533 294.924 297.784 295.671 297.784Z" fill="#252525"/>
<path d="M337.741 303.32C337.079 303.32 336.471 303.192 335.917 302.936C335.373 302.68 334.941 302.333 334.621 301.896C334.301 301.459 334.141 300.968 334.141 300.424C334.141 299.987 334.263 299.645 334.509 299.4C334.754 299.144 335.047 299.016 335.389 299.016C335.709 299.016 335.986 299.117 336.221 299.32C336.455 299.523 336.573 299.816 336.573 300.2C336.007 300.477 335.725 300.904 335.725 301.48C335.725 301.917 335.906 302.275 336.269 302.552C336.642 302.819 337.133 302.952 337.741 302.952C338.509 302.952 339.133 302.664 339.613 302.088C340.093 301.512 340.333 300.707 340.333 299.672C340.333 298.552 340.013 297.688 339.373 297.08C338.733 296.461 337.789 296.115 336.541 296.04V295.688C337.661 295.624 338.53 295.325 339.149 294.792C339.778 294.248 340.093 293.517 340.093 292.6C340.093 291.885 339.895 291.315 339.501 290.888C339.117 290.461 338.599 290.248 337.949 290.248C337.362 290.248 336.898 290.349 336.557 290.552C336.226 290.744 336.061 291.016 336.061 291.368C336.061 291.933 336.327 292.339 336.861 292.584C336.861 292.947 336.749 293.229 336.525 293.432C336.311 293.624 336.05 293.72 335.741 293.72C335.421 293.72 335.143 293.597 334.909 293.352C334.674 293.107 334.557 292.781 334.557 292.376C334.557 291.896 334.722 291.469 335.053 291.096C335.383 290.712 335.821 290.413 336.365 290.2C336.919 289.987 337.506 289.88 338.125 289.88C339.341 289.88 340.29 290.125 340.973 290.616C341.655 291.107 341.997 291.795 341.997 292.68C341.997 293.608 341.661 294.328 340.989 294.84C340.327 295.341 339.362 295.677 338.093 295.848V295.896C339.426 295.96 340.498 296.317 341.309 296.968C342.13 297.608 342.541 298.509 342.541 299.672C342.541 300.323 342.359 300.925 341.997 301.48C341.645 302.035 341.106 302.483 340.381 302.824C339.666 303.155 338.786 303.32 337.741 303.32ZM348.959 303.32C348.031 303.32 347.22 303.069 346.527 302.568C345.833 302.067 345.295 301.315 344.911 300.312C344.527 299.299 344.335 298.061 344.335 296.6C344.335 295.139 344.527 293.907 344.911 292.904C345.295 291.891 345.833 291.133 346.527 290.632C347.22 290.131 348.031 289.88 348.959 289.88C349.887 289.88 350.697 290.131 351.391 290.632C352.084 291.133 352.623 291.891 353.007 292.904C353.391 293.907 353.583 295.139 353.583 296.6C353.583 298.061 353.391 299.299 353.007 300.312C352.623 301.315 352.084 302.067 351.391 302.568C350.697 303.069 349.887 303.32 348.959 303.32ZM348.959 302.952C349.759 302.952 350.388 302.563 350.847 301.784C351.305 301.005 351.535 299.789 351.535 298.136V295.048C351.535 293.405 351.305 292.195 350.847 291.416C350.388 290.637 349.759 290.248 348.959 290.248C348.159 290.248 347.529 290.637 347.071 291.416C346.612 292.195 346.383 293.405 346.383 295.048V298.136C346.383 299.779 346.612 300.995 347.071 301.784C347.529 302.563 348.159 302.952 348.959 302.952Z" fill="#252525"/>
<path d="M14.5151 58V57.706L15.8031 57.496V47.304L14.5151 47.108V46.8H25.3651V47.108L24.0631 47.304V57.496L25.3651 57.706V58H21.2211V57.706L22.5231 57.496V47.15H17.3431V57.496L18.6311 57.706V58H14.5151ZM26.4916 58V57.706L27.7796 57.496V47.304L26.4916 47.108V46.8H30.6076V47.108L29.3196 47.304V51.896H34.6396V47.304L33.3376 47.108V46.8H37.4816V47.108L36.1796 47.304V57.496L37.4816 57.706V58H33.3376V57.706L34.6396 57.496V52.246H29.3196V57.496L30.6076 57.706V58H26.4916Z" fill="#6A6A6A"/>
<path d="M69.4428 57.706L70.7308 57.496V47.304L69.4428 47.108V46.8H73.7128C74.7208 46.8 75.5235 46.8933 76.1208 47.08C76.7181 47.2667 77.1521 47.5513 77.4228 47.934C77.6935 48.3073 77.8288 48.802 77.8288 49.418C77.8288 50.762 76.9795 51.6207 75.2808 51.994V52.064C76.3168 52.204 77.1195 52.512 77.6888 52.988C78.2675 53.464 78.5568 54.1267 78.5568 54.976C78.5568 56.0027 78.1788 56.7633 77.4228 57.258C76.6761 57.7527 75.6635 58 74.3848 58H69.4428V57.706ZM73.8248 51.952C74.5715 51.952 75.1455 51.742 75.5468 51.322C75.9481 50.902 76.1488 50.3047 76.1488 49.53V49.446C76.1488 47.9153 75.3368 47.15 73.7128 47.15H72.2708V51.952H73.8248ZM74.3848 57.664C75.1781 57.664 75.7941 57.4353 76.2328 56.978C76.6715 56.5113 76.8908 55.8487 76.8908 54.99V54.836C76.8908 53.9867 76.6715 53.352 76.2328 52.932C75.8035 52.512 75.1875 52.302 74.3848 52.302H72.2708V57.664H74.3848ZM82.1565 58V57.706L83.4445 57.496V47.15H81.1345L80.0705 49.922H79.6645V46.8H88.7785V49.922H88.3585L87.3085 47.15H84.9845V57.496L86.2725 57.706V58H82.1565Z" fill="#6A6A6A"/>
<path d="M127.823 58.28C126.806 58.28 125.914 58.0327 125.149 57.538C124.384 57.0433 123.791 56.3527 123.371 55.466C122.96 54.5793 122.755 53.5573 122.755 52.4C122.755 51.2427 122.965 50.2207 123.385 49.334C123.814 48.438 124.416 47.7473 125.191 47.262C125.975 46.7673 126.876 46.52 127.893 46.52C128.294 46.52 128.7 46.59 129.111 46.73C129.531 46.87 129.909 47.066 130.245 47.318L131.183 46.52H131.477V49.992H131.183L130.315 47.822C129.988 47.5233 129.606 47.2853 129.167 47.108C128.738 46.9307 128.313 46.842 127.893 46.842C127.24 46.842 126.661 47.01 126.157 47.346C125.662 47.682 125.275 48.172 124.995 48.816C124.715 49.46 124.575 50.2253 124.575 51.112V53.674C124.575 54.5607 124.71 55.326 124.981 55.97C125.252 56.614 125.63 57.1087 126.115 57.454C126.6 57.79 127.17 57.958 127.823 57.958C128.299 57.958 128.775 57.8553 129.251 57.65C129.727 57.4353 130.124 57.1507 130.441 56.796L131.253 54.542H131.547V58.14H131.253L130.245 57.426C129.909 57.6967 129.526 57.9067 129.097 58.056C128.668 58.2053 128.243 58.28 127.823 58.28ZM132.991 57.706L134.279 57.496V47.304L132.991 47.108V46.8H137.387C138.768 46.8 139.795 47.094 140.467 47.682C141.139 48.27 141.475 49.1193 141.475 50.23C141.475 51.3407 141.139 52.19 140.467 52.778C139.795 53.366 138.768 53.66 137.387 53.66H135.819V57.496L137.107 57.706V58H132.991V57.706ZM137.191 53.324C138.917 53.324 139.781 52.386 139.781 50.51V49.95C139.781 48.0833 138.917 47.15 137.191 47.15H135.819V53.324H137.191Z" fill="#6A6A6A"/>
<path d="M180.655 57.706L182.377 57.496V52.778C182.377 52.7873 182.246 52.8433 181.985 52.946C181.723 53.0487 181.387 53.142 180.977 53.226C180.575 53.31 180.132 53.352 179.647 53.352C178.695 53.352 177.948 53.254 177.407 53.058C176.875 52.862 176.497 52.5633 176.273 52.162C176.049 51.7607 175.937 51.224 175.937 50.552V47.304L174.649 47.108V46.8H178.765V47.108L177.477 47.304V50.524C177.477 51.3733 177.645 52.0033 177.981 52.414C178.326 52.8247 178.881 53.03 179.647 53.03C180.16 53.03 180.617 52.9833 181.019 52.89C181.42 52.7967 181.747 52.6987 181.999 52.596C182.251 52.484 182.377 52.4233 182.377 52.414V47.304L181.075 47.108V46.8H185.219V47.108L183.917 47.304V57.496L185.219 57.706V58H180.655V57.706ZM188.614 58V57.706L189.902 57.496V47.15H187.592L186.528 49.922H186.122V46.8H195.236V49.922H194.816L193.766 47.15H191.442V57.496L192.73 57.706V58H188.614Z" fill="#6A6A6A"/>
<path d="M227.67 58V57.706L228.958 57.496V47.304L227.67 47.108V46.8H238.52V47.108L237.218 47.304V57.496L238.52 57.706V58H234.376V57.706L235.678 57.496V47.15H230.498V57.496L231.786 57.706V58H227.67ZM241.929 58V57.706L243.217 57.496V47.15H240.907L239.843 49.922H239.437V46.8H248.551V49.922H248.131L247.081 47.15H244.757V57.496L246.045 57.706V58H241.929Z" fill="#6A6A6A"/>
<path d="M286.55 58.28C285.532 58.28 284.641 58.0327 283.876 57.538C283.11 57.0433 282.518 56.3527 282.098 55.466C281.687 54.5793 281.482 53.5573 281.482 52.4C281.482 51.2427 281.692 50.2207 282.112 49.334C282.541 48.438 283.143 47.7473 283.918 47.262C284.702 46.7673 285.602 46.52 286.62 46.52C287.021 46.52 287.427 46.59 287.838 46.73C288.258 46.87 288.636 47.066 288.972 47.318L289.91 46.52H290.204V49.992H289.91L289.042 47.822C288.715 47.5233 288.332 47.2853 287.894 47.108C287.464 46.9307 287.04 46.842 286.62 46.842C285.966 46.842 285.388 47.01 284.884 47.346C284.389 47.682 284.002 48.172 283.722 48.816C283.442 49.46 283.302 50.2253 283.302 51.112V53.674C283.302 54.5607 283.437 55.326 283.708 55.97C283.978 56.614 284.356 57.1087 284.842 57.454C285.327 57.79 285.896 57.958 286.55 57.958C287.026 57.958 287.502 57.8553 287.978 57.65C288.454 57.4353 288.85 57.1507 289.168 56.796L289.98 54.542H290.274V58.14H289.98L288.972 57.426C288.636 57.6967 288.253 57.9067 287.824 58.056C287.394 58.2053 286.97 58.28 286.55 58.28ZM291.717 57.692L293.005 57.496V47.304L291.717 47.094V46.8H299.725V49.782H299.305L298.255 47.15H294.545V51.7H296.533C297.905 51.7 298.927 51.9613 299.599 52.484C300.281 52.9973 300.621 53.786 300.621 54.85C300.621 55.914 300.281 56.7073 299.599 57.23C298.927 57.7433 297.905 58 296.533 58H291.717V57.692ZM296.337 57.65C297.205 57.65 297.854 57.4447 298.283 57.034C298.713 56.6233 298.927 55.9887 298.927 55.13V54.57C298.927 53.7113 298.713 53.0767 298.283 52.666C297.854 52.246 297.205 52.036 296.337 52.036H294.545V57.65H296.337Z" fill="#6A6A6A"/>
<path d="M334.128 57.706L335.416 57.496V47.304L334.128 47.108V46.8H338.398C339.406 46.8 340.209 46.8933 340.806 47.08C341.404 47.2667 341.838 47.5513 342.108 47.934C342.379 48.3073 342.514 48.802 342.514 49.418C342.514 50.762 341.665 51.6207 339.966 51.994V52.064C341.002 52.204 341.805 52.512 342.374 52.988C342.953 53.464 343.242 54.1267 343.242 54.976C343.242 56.0027 342.864 56.7633 342.108 57.258C341.362 57.7527 340.349 58 339.07 58H334.128V57.706ZM338.51 51.952C339.257 51.952 339.831 51.742 340.232 51.322C340.634 50.902 340.834 50.3047 340.834 49.53V49.446C340.834 47.9153 340.022 47.15 338.398 47.15H336.956V51.952H338.51ZM339.07 57.664C339.864 57.664 340.48 57.4353 340.918 56.978C341.357 56.5113 341.576 55.8487 341.576 54.99V54.836C341.576 53.9867 341.357 53.352 340.918 52.932C340.489 52.512 339.873 52.302 339.07 52.302H336.956V57.664H339.07ZM349.824 58.28C348.807 58.28 347.915 58.0327 347.15 57.538C346.385 57.0433 345.792 56.3527 345.372 55.466C344.961 54.5793 344.756 53.5573 344.756 52.4C344.756 51.2427 344.966 50.2207 345.386 49.334C345.815 48.438 346.417 47.7473 347.192 47.262C347.976 46.7673 348.877 46.52 349.894 46.52C350.295 46.52 350.701 46.59 351.112 46.73C351.532 46.87 351.91 47.066 352.246 47.318L353.184 46.52H353.478V49.992H353.184L352.316 47.822C351.989 47.5233 351.607 47.2853 351.168 47.108C350.739 46.9307 350.314 46.842 349.894 46.842C349.241 46.842 348.662 47.01 348.158 47.346C347.663 47.682 347.276 48.172 346.996 48.816C346.716 49.46 346.576 50.2253 346.576 51.112V53.674C346.576 54.5607 346.711 55.326 346.982 55.97C347.253 56.614 347.631 57.1087 348.116 57.454C348.601 57.79 349.171 57.958 349.824 57.958C350.3 57.958 350.776 57.8553 351.252 57.65C351.728 57.4353 352.125 57.1507 352.442 56.796L353.254 54.542H353.548V58.14H353.254L352.246 57.426C351.91 57.6967 351.527 57.9067 351.098 58.056C350.669 58.2053 350.244 58.28 349.824 58.28Z" fill="#6A6A6A"/>
</svg>
